<?xml version="1.0" standalone="no"?>
<!DOCTYPE svg PUBLIC "-//W3C//DTD SVG 20010904//EN"
 "http://www.w3.org/TR/2001/REC-SVG-20010904/DTD/svg10.dtd">
<svg version="1.0" xmlns="http://www.w3.org/2000/svg"
 width="3000.000000pt" height="1000.000000pt" viewBox="0 0 3000.000000 1000.000000"
 preserveAspectRatio="xMidYMid meet">
<metadata>
Created by potrace 1.16, written by Peter Selinger 2001-2019
</metadata>
<g transform="translate(0.000000,1000.000000) scale(0.100000,-0.100000)"
fill="#000000" stroke="none">
<path d="M3134 9135 c-368 -68 -698 -315 -866 -650 -95 -187 -134 -374 -125
-595 5 -143 14 -189 73 -390 22 -76 30 -327 14 -427 -33 -206 -137 -409 -301
-587 -130 -141 -309 -257 -464 -301 -140 -39 -298 -114 -411 -193 -80 -57
-213 -188 -278 -276 -99 -132 -180 -324 -211 -499 -26 -144 -17 -385 18 -518
118 -437 444 -761 882 -875 137 -36 339 -44 486 -20 246 41 462 146 641 314
169 158 206 189 304 253 123 82 180 111 292 149 342 115 605 26 957 -323 82
-82 179 -172 215 -201 330 -264 803 -342 1211 -200 205 72 325 152 545 363
158 153 258 229 389 294 166 83 308 108 497 88 248 -27 390 -96 453 -221 73
-145 52 -286 -77 -522 -155 -283 -369 -429 -822 -558 -406 -115 -716 -414
-840 -807 -208 -664 183 -1363 862 -1540 120 -31 344 -42 472 -24 405 60 772
336 930 699 51 118 76 203 95 317 27 170 15 365 -34 526 -31 104 -42 167 -48
285 -10 188 26 353 114 529 80 159 188 284 347 404 89 67 266 153 386 187 345
97 644 356 783 678 84 195 116 389 98 585 -26 260 -92 436 -243 638 -115 155
-268 280 -443 363 -279 133 -612 154 -905 58 -180 -59 -330 -154 -504 -318
-323 -304 -518 -409 -761 -410 -219 0 -408 107 -720 410 -219 214 -278 259
-437 337 -290 142 -635 166 -952 66 -148 -46 -282 -117 -396 -208 -36 -29
-132 -120 -215 -202 -307 -306 -453 -385 -710 -385 -306 -1 -559 116 -643 296
-72 153 -29 369 118 595 122 186 372 337 732 441 247 71 429 176 586 338 122
126 195 240 257 401 198 513 30 1094 -410 1419 -85 63 -255 150 -350 179 -166
52 -426 68 -591 38z"/>
<path d="M6680 9140 c-167 -27 -415 -131 -517 -217 -12 -10 -37 -29 -55 -43
-172 -130 -319 -347 -392 -580 -133 -418 -18 -896 289 -1205 89 -89 161 -146
245 -195 233 -133 414 -177 685 -167 162 6 260 27 403 85 280 115 518 344 640
617 127 285 145 555 57 858 -21 73 -82 214 -118 272 -104 169 -243 307 -415
412 -104 64 -198 104 -324 139 -80 22 -118 26 -268 29 -96 2 -200 0 -230 -5z"/>
<path d="M26800 4995 l0 -2315 415 0 415 0 0 2315 0 2315 -415 0 -415 0 0
-2315z"/>
<path d="M11310 4894 l0 -2215 788 3 c772 4 789 4 912 27 724 134 1304 568
1621 1216 154 315 221 604 222 960 1 367 -64 655 -222 980 -335 688 -991 1150
-1756 1235 -52 6 -404 10 -827 10 l-738 0 0 -2216z m1610 1318 c474 -113 845
-448 995 -895 48 -143 65 -255 65 -422 0 -83 -6 -179 -15 -231 -84 -481 -436
-889 -900 -1043 -175 -58 -214 -63 -557 -68 l-318 -5 0 1347 0 1347 323 -5
c278 -4 334 -7 407 -25z"/>
<path d="M16744 6149 c-506 -37 -972 -310 -1257 -737 -300 -450 -378 -1062
-203 -1586 118 -353 327 -639 621 -852 127 -91 362 -205 510 -248 450 -128
943 -63 1333 177 404 248 682 646 782 1119 66 310 44 694 -56 998 -94 282
-268 550 -476 730 -337 292 -782 434 -1254 399z m351 -859 c292 -75 525 -312
607 -619 26 -97 36 -330 18 -438 -57 -357 -308 -637 -647 -720 -105 -26 -297
-23 -397 6 -99 27 -232 96 -312 160 -135 108 -252 295 -301 480 -22 83 -26
116 -26 251 1 134 4 168 27 254 92 352 351 593 691 646 87 13 247 4 340 -20z"/>
<path d="M20530 6134 c-126 -23 -287 -78 -451 -154 -189 -88 -320 -140 -351
-140 -44 0 -91 22 -196 91 -56 38 -122 74 -145 80 -89 24 -253 36 -304 23
l-23 -6 0 -2284 0 -2284 415 0 415 0 0 738 c0 406 2 741 5 744 3 3 59 -23 123
-58 186 -101 375 -176 532 -210 96 -21 326 -21 470 0 310 45 597 168 825 356
331 273 541 693 584 1170 89 967 -451 1744 -1334 1920 -147 30 -440 37 -565
14z m440 -839 c87 -23 222 -87 284 -134 60 -45 143 -129 186 -187 125 -171
187 -433 161 -675 -40 -375 -265 -660 -606 -769 -106 -34 -319 -40 -437 -11
-327 78 -569 335 -640 681 -26 123 -21 365 10 475 93 336 326 562 652 631 86
18 302 12 390 -11z"/>
<path d="M24400 6135 c-154 -26 -282 -68 -455 -150 -162 -77 -304 -135 -345
-141 -53 -9 -89 6 -210 86 -70 46 -125 74 -164 85 -73 18 -230 30 -280 21
l-36 -7 0 -2284 0 -2285 420 0 420 0 0 745 0 744 153 -79 c349 -181 546 -230
835 -209 327 23 636 131 880 306 359 258 601 687 662 1173 16 129 13 431 -5
557 -104 712 -572 1239 -1250 1407 -179 44 -464 59 -625 31z m350 -826 c287
-46 521 -231 637 -503 49 -117 64 -192 70 -356 4 -130 2 -171 -15 -250 -71
-344 -313 -603 -635 -680 -114 -28 -295 -27 -403 0 -355 91 -604 390 -645 778
-21 196 12 394 92 556 85 170 213 299 374 379 157 78 346 105 525 76z"/>
<path d="M28780 3609 c-282 -34 -500 -280 -500 -563 0 -267 166 -487 425 -562
87 -25 240 -22 325 6 95 32 167 76 236 145 218 217 217 598 -3 814 -128 125
-301 183 -483 160z"/>
<path d="M3175 3273 c-304 -44 -611 -230 -804 -488 -143 -191 -231 -461 -231
-713 0 -563 367 -1030 930 -1183 75 -21 108 -24 280 -24 167 0 207 3 280 22
229 58 422 166 584 327 59 58 145 164 159 196 4 8 16 29 26 45 33 51 81 156
106 230 127 378 58 801 -182 1117 -181 239 -465 411 -758 462 -84 15 -313 20
-390 9z"/>
</g>
</svg>
